<?xml version="1.0" encoding="UTF-8" standalone="no"?>
<!-- Created with Inkscape (http://www.inkscape.org/) -->

<svg
   xmlns:dc="http://purl.org/dc/elements/1.1/"
   xmlns:cc="http://creativecommons.org/ns#"
   xmlns:rdf="http://www.w3.org/1999/02/22-rdf-syntax-ns#"
   xmlns:svg="http://www.w3.org/2000/svg"
   xmlns="http://www.w3.org/2000/svg"
   xmlns:sodipodi="http://sodipodi.sourceforge.net/DTD/sodipodi-0.dtd"
   xmlns:inkscape="http://www.inkscape.org/namespaces/inkscape"
   id="svg2"
   version="1.1"
   inkscape:version="0.48.3.1 r9886"
   width="810.625"
   height="540.625"
   xml:space="preserve"
   sodipodi:docname="prof2.pdf"><metadata
     id="metadata8"><rdf:RDF><cc:Work
         rdf:about=""><dc:format>image/svg+xml</dc:format><dc:type
           rdf:resource="http://purl.org/dc/dcmitype/StillImage" /><dc:title></dc:title></cc:Work></rdf:RDF></metadata><defs
     id="defs6" /><sodipodi:namedview
     pagecolor="#ffffff"
     bordercolor="#666666"
     borderopacity="1"
     objecttolerance="10"
     gridtolerance="10"
     guidetolerance="10"
     inkscape:pageopacity="0"
     inkscape:pageshadow="2"
     inkscape:window-width="702"
     inkscape:window-height="877"
     id="namedview4"
     showgrid="false"
     fit-margin-top="0"
     fit-margin-left="0"
     fit-margin-right="0"
     fit-margin-bottom="0"
     inkscape:zoom="0.61699346"
     inkscape:cx="456.79555"
     inkscape:cy="292.8125"
     inkscape:window-x="0"
     inkscape:window-y="19"
     inkscape:window-maximized="0"
     inkscape:current-layer="g10" /><g
     id="g10"
     inkscape:groupmode="layer"
     inkscape:label="prof2"
     transform="matrix(0,-1.25,-1.25,0,945.3125,630.3125)"><g
       id="g12"
       transform="scale(0.1,0.1)"><path
         d="m 720,1080 4320,0 0,6480 -4320,0 0,-6480 z"
         style="fill:none;stroke:#000000;stroke-width:5;stroke-linecap:butt;stroke-linejoin:miter;stroke-miterlimit:10;stroke-opacity:1;stroke-dasharray:none"
         id="path14"
         inkscape:connector-curvature="0" /><path
         d="m 4790,1130 200,0 0,6380 -200,0 0,-6380 z"
         style="fill:none;stroke:#000000;stroke-width:5;stroke-linecap:butt;stroke-linejoin:miter;stroke-miterlimit:10;stroke-opacity:1;stroke-dasharray:none"
         id="path16"
         inkscape:connector-curvature="0" /><g
         id="g18"
         transform="scale(10,10)"><text
           transform="matrix(0,-1,-1,0,485,745)"
           id="text20"><tspan
             style="font-size:12px;font-variant:normal;font-weight:normal;writing-mode:lr-tb;fill:#000000;fill-opacity:1;fill-rule:nonzero;stroke:none;font-family:Helvetica;-inkscape-font-specification:Helvetica"
             x="0 6.6719999 10.668 17.34 20.676001 27.348 30.684 37.355999 44.028 50.700001 54.035999 61.043999 69.708 77.040001 85.043999 88.379997 92.375999 99.047997 105.048 108.384 112.38 120.384 127.056 133.728 140.39999 150.396 153.73199 157.728 160.392 167.064 170.39999 177.07201 233.28912 239.96112 246.63312 249.96912 256.64111 263.31311 269.98511 273.32111 279.99313 286.66513 293.33713 296.67313 303.34512 309.34512 312.68112 319.35312 325.35312 328.68912 334.68912 338.02512 344.02512 350.69711 356.69711 363.36911 370.04111 376.71313 496.58243 507.91043 514.58246 521.25446 524.59045 532.59442 539.26642 545.93842 549.27441 555.94641 562.61847 565.95447 572.62646 579.29846 582.63446 589.30646 595.97845 599.31445 605.98645 612.65845 619.33044"
             y="0"
             sodipodi:role="line"
             id="tspan22">prof2 1e6 +RTS -hc -K256M -i0.0114,171,291 bytes x secondsWed Aug 29 02:23 2012</tspan></text>
</g><path
         d="m 920,7110 0,-4024.25"
         style="fill:none;stroke:#000000;stroke-width:5;stroke-linecap:butt;stroke-linejoin:miter;stroke-miterlimit:10;stroke-opacity:1;stroke-dasharray:none"
         id="path24"
         inkscape:connector-curvature="0" /><g
         id="g26"
         transform="scale(10,10)"><text
           transform="matrix(0,-1,-1,0,77,345.814)"
           id="text28"><tspan
             style="font-size:10px;font-variant:normal;font-weight:normal;writing-mode:lr-tb;fill:#000000;fill-opacity:1;fill-rule:nonzero;stroke:none;font-family:Helvetica;-inkscape-font-specification:Helvetica"
             x="0 5 10.56 15.56 21.120001 26.68 32.240002"
             y="0"
             sodipodi:role="line"
             id="tspan30">seconds</tspan></text>
</g><path
         d="m 920,7110 -40,0"
         style="fill:none;stroke:#000000;stroke-width:5;stroke-linecap:butt;stroke-linejoin:miter;stroke-miterlimit:10;stroke-opacity:1;stroke-dasharray:none"
         id="path32"
         inkscape:connector-curvature="0" /><g
         id="g34"
         transform="scale(10,10)"><text
           transform="matrix(0,-1,-1,0,77,717.95)"
           id="text36"><tspan
             style="font-size:10px;font-variant:normal;font-weight:normal;writing-mode:lr-tb;fill:#000000;fill-opacity:1;fill-rule:nonzero;stroke:none;font-family:Helvetica;-inkscape-font-specification:Helvetica"
             x="0 5.5599999 8.3400002"
             y="0"
             sodipodi:role="line"
             id="tspan38">0.0</tspan></text>
</g><path
         d="m 920,6460.93 -40,0"
         style="fill:none;stroke:#000000;stroke-width:5;stroke-linecap:butt;stroke-linejoin:miter;stroke-miterlimit:10;stroke-opacity:1;stroke-dasharray:none"
         id="path40"
         inkscape:connector-curvature="0" /><g
         id="g42"
         transform="scale(10,10)"><text
           transform="matrix(0,-1,-1,0,77,653.042)"
           id="text44"><tspan
             style="font-size:10px;font-variant:normal;font-weight:normal;writing-mode:lr-tb;fill:#000000;fill-opacity:1;fill-rule:nonzero;stroke:none;font-family:Helvetica;-inkscape-font-specification:Helvetica"
             x="0 5.5599999 8.3400002"
             y="0"
             sodipodi:role="line"
             id="tspan46">0.1</tspan></text>
</g><path
         d="m 920,5811.86 -40,0"
         style="fill:none;stroke:#000000;stroke-width:5;stroke-linecap:butt;stroke-linejoin:miter;stroke-miterlimit:10;stroke-opacity:1;stroke-dasharray:none"
         id="path48"
         inkscape:connector-curvature="0" /><g
         id="g50"
         transform="scale(10,10)"><text
           transform="matrix(0,-1,-1,0,77,588.135)"
           id="text52"><tspan
             style="font-size:10px;font-variant:normal;font-weight:normal;writing-mode:lr-tb;fill:#000000;fill-opacity:1;fill-rule:nonzero;stroke:none;font-family:Helvetica;-inkscape-font-specification:Helvetica"
             x="0 5.5599999 8.3400002"
             y="0"
             sodipodi:role="line"
             id="tspan54">0.1</tspan></text>
</g><path
         d="m 920,5162.78 -40,0"
         style="fill:none;stroke:#000000;stroke-width:5;stroke-linecap:butt;stroke-linejoin:miter;stroke-miterlimit:10;stroke-opacity:1;stroke-dasharray:none"
         id="path56"
         inkscape:connector-curvature="0" /><g
         id="g58"
         transform="scale(10,10)"><text
           transform="matrix(0,-1,-1,0,77,523.228)"
           id="text60"><tspan
             style="font-size:10px;font-variant:normal;font-weight:normal;writing-mode:lr-tb;fill:#000000;fill-opacity:1;fill-rule:nonzero;stroke:none;font-family:Helvetica;-inkscape-font-specification:Helvetica"
             x="0 5.5599999 8.3400002"
             y="0"
             sodipodi:role="line"
             id="tspan62">0.2</tspan></text>
</g><path
         d="m 920,4513.71 -40,0"
         style="fill:none;stroke:#000000;stroke-width:5;stroke-linecap:butt;stroke-linejoin:miter;stroke-miterlimit:10;stroke-opacity:1;stroke-dasharray:none"
         id="path64"
         inkscape:connector-curvature="0" /><g
         id="g66"
         transform="scale(10,10)"><text
           transform="matrix(0,-1,-1,0,77,458.32)"
           id="text68"><tspan
             style="font-size:10px;font-variant:normal;font-weight:normal;writing-mode:lr-tb;fill:#000000;fill-opacity:1;fill-rule:nonzero;stroke:none;font-family:Helvetica;-inkscape-font-specification:Helvetica"
             x="0 5.5599999 8.3400002"
             y="0"
             sodipodi:role="line"
             id="tspan70">0.2</tspan></text>
</g><path
         d="m 920,3864.64 -40,0"
         style="fill:none;stroke:#000000;stroke-width:5;stroke-linecap:butt;stroke-linejoin:miter;stroke-miterlimit:10;stroke-opacity:1;stroke-dasharray:none"
         id="path72"
         inkscape:connector-curvature="0" /><g
         id="g74"
         transform="scale(10,10)"><text
           transform="matrix(0,-1,-1,0,77,393.413)"
           id="text76"><tspan
             style="font-size:10px;font-variant:normal;font-weight:normal;writing-mode:lr-tb;fill:#000000;fill-opacity:1;fill-rule:nonzero;stroke:none;font-family:Helvetica;-inkscape-font-specification:Helvetica"
             x="0 5.5599999 8.3400002"
             y="0"
             sodipodi:role="line"
             id="tspan78">0.2</tspan></text>
</g><path
         d="m 920,7110 3820,0"
         style="fill:none;stroke:#000000;stroke-width:5;stroke-linecap:butt;stroke-linejoin:miter;stroke-miterlimit:10;stroke-opacity:1;stroke-dasharray:none"
         id="path80"
         inkscape:connector-curvature="0" /><g
         id="g82"
         transform="scale(10,10)"><text
           transform="matrix(1,0,0,-1,450.101,716)"
           id="text84"><tspan
             style="font-size:10px;font-variant:normal;font-weight:normal;writing-mode:lr-tb;fill:#000000;fill-opacity:1;fill-rule:nonzero;stroke:none;font-family:Helvetica;-inkscape-font-specification:Helvetica"
             x="0 5.5599999 10.56 13.34 18.9"
             y="0"
             sodipodi:role="line"
             id="tspan86">bytes</tspan></text>
</g><path
         d="m 920,7110 0,40"
         style="fill:none;stroke:#000000;stroke-width:5;stroke-linecap:butt;stroke-linejoin:miter;stroke-miterlimit:10;stroke-opacity:1;stroke-dasharray:none"
         id="path88"
         inkscape:connector-curvature="0" /><g
         id="g90"
         transform="scale(10,10)"><text
           transform="matrix(0,-1,-1,0,92,729.889)"
           id="text92"><tspan
             style="font-size:10px;font-variant:normal;font-weight:normal;writing-mode:lr-tb;fill:#000000;fill-opacity:1;fill-rule:nonzero;stroke:none;font-family:Helvetica;-inkscape-font-specification:Helvetica"
             x="0 5.5599999"
             y="0"
             sodipodi:role="line"
             id="tspan94">0M</tspan></text>
</g><path
         d="m 1890.56,7110 0,40"
         style="fill:none;stroke:#000000;stroke-width:5;stroke-linecap:butt;stroke-linejoin:miter;stroke-miterlimit:10;stroke-opacity:1;stroke-dasharray:none"
         id="path96"
         inkscape:connector-curvature="0" /><g
         id="g98"
         transform="scale(10,10)"><text
           transform="matrix(0,-1,-1,0,189.056,735.449)"
           id="text100"><tspan
             style="font-size:10px;font-variant:normal;font-weight:normal;writing-mode:lr-tb;fill:#000000;fill-opacity:1;fill-rule:nonzero;stroke:none;font-family:Helvetica;-inkscape-font-specification:Helvetica"
             x="0 5.5599999 11.12"
             y="0"
             sodipodi:role="line"
             id="tspan102">20M</tspan></text>
</g><path
         d="m 2861.12,7110 0,40"
         style="fill:none;stroke:#000000;stroke-width:5;stroke-linecap:butt;stroke-linejoin:miter;stroke-miterlimit:10;stroke-opacity:1;stroke-dasharray:none"
         id="path104"
         inkscape:connector-curvature="0" /><g
         id="g106"
         transform="scale(10,10)"><text
           transform="matrix(0,-1,-1,0,286.112,735.449)"
           id="text108"><tspan
             style="font-size:10px;font-variant:normal;font-weight:normal;writing-mode:lr-tb;fill:#000000;fill-opacity:1;fill-rule:nonzero;stroke:none;font-family:Helvetica;-inkscape-font-specification:Helvetica"
             x="0 5.5599999 11.12"
             y="0"
             sodipodi:role="line"
             id="tspan110">40M</tspan></text>
</g><path
         d="m 3831.67,7110 0,40"
         style="fill:none;stroke:#000000;stroke-width:5;stroke-linecap:butt;stroke-linejoin:miter;stroke-miterlimit:10;stroke-opacity:1;stroke-dasharray:none"
         id="path112"
         inkscape:connector-curvature="0" /><g
         id="g114"
         transform="scale(10,10)"><text
           transform="matrix(0,-1,-1,0,383.167,735.449)"
           id="text116"><tspan
             style="font-size:10px;font-variant:normal;font-weight:normal;writing-mode:lr-tb;fill:#000000;fill-opacity:1;fill-rule:nonzero;stroke:none;font-family:Helvetica;-inkscape-font-specification:Helvetica"
             x="0 5.5599999 11.12"
             y="0"
             sodipodi:role="line"
             id="tspan118">60M</tspan></text>
</g><path
         d="m 2123.33,2895.75 140,0 0,140 -140,0 0,-140 z"
         style="fill:#000000;fill-opacity:1;fill-rule:nonzero;stroke:none"
         id="path120"
         inkscape:connector-curvature="0" /><path
         d="m 2123.33,2895.75 140,0 0,140 -140,0 0,-140 z"
         style="fill:none;stroke:#000000;stroke-width:5;stroke-linecap:butt;stroke-linejoin:miter;stroke-miterlimit:10;stroke-opacity:1;stroke-dasharray:none"
         id="path122"
         inkscape:connector-curvature="0" /><g
         id="g124"
         transform="scale(10,10)"><text
           transform="matrix(0,-1,-1,0,214.333,284.575)"
           id="text126"><tspan
             style="font-size:10px;font-variant:normal;font-weight:normal;writing-mode:lr-tb;fill:#000000;fill-opacity:1;fill-rule:nonzero;stroke:none;font-family:Helvetica;-inkscape-font-specification:Helvetica"
             x="0 3.3299999 8.8900003 14.45 20.01 23.34 31.67 37.23 42.790001 48.349998 51.130001 59.459999 65.019997 70.580002 76.139999 78.919998 87.25 92.809998 95.029999 100.59 103.37 110.59 117.26 123.37 126.15 134.48 140.03999 142.25999"
             y="0"
             sodipodi:role="line"
             id="tspan128">(111)mean/mean/main/CAF:main</tspan></text>
</g><path
         d="m 3396.67,2895.75 140,0 0,140 -140,0 0,-140 z"
         style="fill:#0000ff;fill-opacity:1;fill-rule:nonzero;stroke:none"
         id="path130"
         inkscape:connector-curvature="0" /><path
         d="m 3396.67,2895.75 140,0 0,140 -140,0 0,-140 z"
         style="fill:none;stroke:#000000;stroke-width:5;stroke-linecap:butt;stroke-linejoin:miter;stroke-miterlimit:10;stroke-opacity:1;stroke-dasharray:none"
         id="path132"
         inkscape:connector-curvature="0" /><g
         id="g134"
         transform="scale(10,10)"><text
           transform="matrix(0,-1,-1,0,341.667,284.575)"
           id="text136"><tspan
             style="font-size:10px;font-variant:normal;font-weight:normal;writing-mode:lr-tb;fill:#000000;fill-opacity:1;fill-rule:nonzero;stroke:none;font-family:Helvetica;-inkscape-font-specification:Helvetica"
             x="0 3.3299999 8.8900003 14.45 20.01 23.34 31.67 37.23 39.450001 45.009998 47.790001 55.009998 61.68 67.790001 70.57 78.900002 84.459999 86.68"
             y="0"
             sodipodi:role="line"
             id="tspan138">(109)main/CAF:main</tspan></text>
</g><path
         d="m 920,7110 0,-4024.25 0.004,0 127.656,389.44 152.66,129.82 127.21,129.81 101.77,0 127.22,129.82 127.21,129.81 178.54,129.82 176.73,129.81 183.92,129.81 164.29,129.82 168.88,129.81 170.18,129.82 103.72,129.81 -98.39,129.82 -113.3,129.81 -92.42,129.82 -125.23,129.81 -128.21,129.82 -136.19,129.81 -128.2,259.63 -110.32,0 -146.1,259.63 -125.22,129.81 -110.32,129.82 -107.34,129.81 -169.95,129.81 -107.33,129.82 -125.23,129.81 L 920,7110"
         style="fill:#000000;fill-opacity:1;fill-rule:nonzero;stroke:none"
         id="path140"
         inkscape:connector-curvature="0" /><path
         d="m 920,7110 0,-4024.25 0.004,0 127.656,389.44 152.66,129.82 127.21,129.81 101.77,0 127.22,129.82 127.21,129.81 178.54,129.82 176.73,129.81 183.92,129.81 164.29,129.82 168.88,129.81 170.18,129.82 103.72,129.81 -98.39,129.82 -113.3,129.81 -92.42,129.82 -125.23,129.81 -128.21,129.82 -136.19,129.81 -128.2,259.63 -110.32,0 -146.1,259.63 -125.22,129.81 -110.32,129.82 -107.34,129.81 -169.95,129.81 -107.33,129.82 -125.23,129.81 L 920,7110 z"
         style="fill:none;stroke:#000000;stroke-width:5;stroke-linecap:butt;stroke-linejoin:miter;stroke-miterlimit:10;stroke-opacity:1;stroke-dasharray:none"
         id="path142"
         inkscape:connector-curvature="0" /><path
         d="m 920,7110 0,0 86.24,-129.82 125.23,-129.81 107.33,-129.82 169.95,-129.81 107.34,-129.81 110.32,-129.82 125.22,-129.81 146.1,-259.63 110.32,0 128.2,-259.63 136.19,-129.81 128.21,-129.82 125.23,-129.81 92.42,-129.82 113.3,-129.81 98.39,-129.82 -103.72,-129.81 -170.18,-129.82 -168.88,-129.81 -164.29,-129.82 -183.92,-129.81 -176.73,-129.81 -178.54,-129.82 -127.21,-129.81 -127.22,-129.82 -101.77,0 -127.21,-129.81 -152.66,-129.82 -127.656,-389.44 -0.004,0 0.016,0 2068.774,389.44 152.66,129.82 127.21,129.81 101.77,0 127.21,129.82 127.22,129.81 178.54,129.82 176.72,129.81 183.93,129.81 164.29,129.82 168.87,129.81 170.18,129.82 72.61,129.81 -196.78,129.82 -226.6,129.81 -184.86,129.82 -250.45,129.81 -256.41,129.82 -272.38,129.81 -256.42,259.63 -220.63,0 -292.19,259.63 -250.46,129.81 -220.63,129.82 -214.67,129.81 -339.9,129.81 -214.67,129.82 L 1092.5,6980.18 920,7110"
         style="fill:#0000ff;fill-opacity:1;fill-rule:nonzero;stroke:none"
         id="path144"
         inkscape:connector-curvature="0" /><path
         d="m 920,7110 0,0 86.24,-129.82 125.23,-129.81 107.33,-129.82 169.95,-129.81 107.34,-129.81 110.32,-129.82 125.22,-129.81 146.1,-259.63 110.32,0 128.2,-259.63 136.19,-129.81 128.21,-129.82 125.23,-129.81 92.42,-129.82 113.3,-129.81 98.39,-129.82 -103.72,-129.81 -170.18,-129.82 -168.88,-129.81 -164.29,-129.82 -183.92,-129.81 -176.73,-129.81 -178.54,-129.82 -127.21,-129.81 -127.22,-129.82 -101.77,0 -127.21,-129.81 -152.66,-129.82 -127.656,-389.44 -0.004,0 0.016,0 2068.774,389.44 152.66,129.82 127.21,129.81 101.77,0 127.21,129.82 127.22,129.81 178.54,129.82 176.72,129.81 183.93,129.81 164.29,129.82 168.87,129.81 170.18,129.82 72.61,129.81 -196.78,129.82 -226.6,129.81 -184.86,129.82 -250.45,129.81 -256.41,129.82 -272.38,129.81 -256.42,259.63 -220.63,0 -292.19,259.63 -250.46,129.81 -220.63,129.82 -214.67,129.81 -339.9,129.81 -214.67,129.82 L 1092.5,6980.18 920,7110 z"
         style="fill:none;stroke:#000000;stroke-width:5;stroke-linecap:butt;stroke-linejoin:miter;stroke-miterlimit:10;stroke-opacity:1;stroke-dasharray:none"
         id="path146"
         inkscape:connector-curvature="0" /></g></g></svg>