<?xml version="1.0" encoding="UTF-8" standalone="no"?>
<!-- Created with Inkscape (http://www.inkscape.org/) -->

<svg
   xmlns:dc="http://purl.org/dc/elements/1.1/"
   xmlns:cc="http://creativecommons.org/ns#"
   xmlns:rdf="http://www.w3.org/1999/02/22-rdf-syntax-ns#"
   xmlns:svg="http://www.w3.org/2000/svg"
   xmlns="http://www.w3.org/2000/svg"
   xmlns:sodipodi="http://sodipodi.sourceforge.net/DTD/sodipodi-0.dtd"
   xmlns:inkscape="http://www.inkscape.org/namespaces/inkscape"
   id="svg2"
   version="1.1"
   inkscape:version="0.48.3.1 r9886"
   width="810.625"
   height="540.625"
   xml:space="preserve"
   sodipodi:docname="prof2-hy.svg"><metadata
     id="metadata8"><rdf:RDF><cc:Work
         rdf:about=""><dc:format>image/svg+xml</dc:format><dc:type
           rdf:resource="http://purl.org/dc/dcmitype/StillImage" /><dc:title /></cc:Work></rdf:RDF></metadata><defs
     id="defs6" /><sodipodi:namedview
     pagecolor="#ffffff"
     bordercolor="#666666"
     borderopacity="1"
     objecttolerance="10"
     gridtolerance="10"
     guidetolerance="10"
     inkscape:pageopacity="0"
     inkscape:pageshadow="2"
     inkscape:window-width="702"
     inkscape:window-height="877"
     id="namedview4"
     showgrid="false"
     inkscape:zoom="0.87256052"
     inkscape:cx="459.08765"
     inkscape:cy="292.8125"
     inkscape:window-x="0"
     inkscape:window-y="19"
     inkscape:window-maximized="0"
     inkscape:current-layer="g10"
     fit-margin-top="0"
     fit-margin-left="0"
     fit-margin-right="0"
     fit-margin-bottom="0" /><g
     id="g10"
     inkscape:groupmode="layer"
     inkscape:label="prof2"
     transform="matrix(0,-1.25,-1.25,0,945.3125,630.3125)"><g
       id="g12"
       transform="scale(0.1,0.1)"><path
         d="m 720,1080 4320,0 0,6480 -4320,0 0,-6480 z"
         style="fill:none;stroke:#000000;stroke-width:5;stroke-linecap:butt;stroke-linejoin:miter;stroke-miterlimit:10;stroke-opacity:1;stroke-dasharray:none"
         id="path14"
         inkscape:connector-curvature="0" /><path
         d="m 4790,1130 200,0 0,6380 -200,0 0,-6380 z"
         style="fill:none;stroke:#000000;stroke-width:5;stroke-linecap:butt;stroke-linejoin:miter;stroke-miterlimit:10;stroke-opacity:1;stroke-dasharray:none"
         id="path16"
         inkscape:connector-curvature="0" /><g
         id="g18"
         transform="scale(10,10)"><text
   transform="matrix(0,-1,-1,0,485,745)"
   id="text20"><tspan
     style="font-size:12px;font-variant:normal;font-weight:normal;writing-mode:lr-tb;fill:#000000;fill-opacity:1;fill-rule:nonzero;stroke:none;font-family:Helvetica;-inkscape-font-specification:Helvetica"
     x="0 6.6719999 10.668 17.34 20.676001 27.348 30.684 37.355999 44.028 50.700001 54.035999 61.043999 69.708 77.040001 85.043999 88.379997 92.375999 99.047997 105.048 108.384 112.38 120.384 127.056 133.728 140.39999 150.396 153.73199 157.728 160.392 167.064 170.39999 177.07201 233.28912 239.96112 246.63312 249.96912 256.64111 263.31311 269.98511 273.32111 279.99313 286.66513 293.33713 296.67313 303.34512 309.34512 312.68112 319.35312 325.35312 328.68912 334.68912 338.02512 344.02512 350.69711 356.69711 363.36911 370.04111 376.71313 496.58243 507.91043 514.58246 521.25446 524.59045 532.59442 539.26642 545.93842 549.27441 555.94641 562.61847 565.95447 572.62646 579.29846 582.63446 589.30646 595.97845 599.31445 605.98645 612.65845 619.33044"
     y="0"
     sodipodi:role="line"
     id="tspan22">prof2 1e6 +RTS -hy -K256M -i0.0114,065,124 bytes x secondsWed Aug 29 02:18 2012</tspan></text>

</g><path
         d="m 920,7110 0,-4874.64"
         style="fill:none;stroke:#000000;stroke-width:5;stroke-linecap:butt;stroke-linejoin:miter;stroke-miterlimit:10;stroke-opacity:1;stroke-dasharray:none"
         id="path24"
         inkscape:connector-curvature="0" /><g
         id="g26"
         transform="scale(10,10)"><text
   transform="matrix(0,-1,-1,0,77,260.775)"
   id="text28"><tspan
     style="font-size:10px;font-variant:normal;font-weight:normal;writing-mode:lr-tb;fill:#000000;fill-opacity:1;fill-rule:nonzero;stroke:none;font-family:Helvetica;-inkscape-font-specification:Helvetica"
     x="0 5 10.56 15.56 21.120001 26.68 32.240002"
     y="0"
     sodipodi:role="line"
     id="tspan30">seconds</tspan></text>

</g><path
         d="m 920,7110 -40,0"
         style="fill:none;stroke:#000000;stroke-width:5;stroke-linecap:butt;stroke-linejoin:miter;stroke-miterlimit:10;stroke-opacity:1;stroke-dasharray:none"
         id="path32"
         inkscape:connector-curvature="0" /><g
         id="g34"
         transform="scale(10,10)"><text
   transform="matrix(0,-1,-1,0,77,717.95)"
   id="text36"><tspan
     style="font-size:10px;font-variant:normal;font-weight:normal;writing-mode:lr-tb;fill:#000000;fill-opacity:1;fill-rule:nonzero;stroke:none;font-family:Helvetica;-inkscape-font-specification:Helvetica"
     x="0 5.5599999 8.3400002"
     y="0"
     sodipodi:role="line"
     id="tspan38">0.0</tspan></text>

</g><path
         d="m 920,6297.56 -40,0"
         style="fill:none;stroke:#000000;stroke-width:5;stroke-linecap:butt;stroke-linejoin:miter;stroke-miterlimit:10;stroke-opacity:1;stroke-dasharray:none"
         id="path40"
         inkscape:connector-curvature="0" /><g
         id="g42"
         transform="scale(10,10)"><text
   transform="matrix(0,-1,-1,0,77,636.705)"
   id="text44"><tspan
     style="font-size:10px;font-variant:normal;font-weight:normal;writing-mode:lr-tb;fill:#000000;fill-opacity:1;fill-rule:nonzero;stroke:none;font-family:Helvetica;-inkscape-font-specification:Helvetica"
     x="0 5.5599999 8.3400002"
     y="0"
     sodipodi:role="line"
     id="tspan46">0.1</tspan></text>

</g><path
         d="m 920,5485.12 -40,0"
         style="fill:none;stroke:#000000;stroke-width:5;stroke-linecap:butt;stroke-linejoin:miter;stroke-miterlimit:10;stroke-opacity:1;stroke-dasharray:none"
         id="path48"
         inkscape:connector-curvature="0" /><g
         id="g50"
         transform="scale(10,10)"><text
   transform="matrix(0,-1,-1,0,77,555.461)"
   id="text52"><tspan
     style="font-size:10px;font-variant:normal;font-weight:normal;writing-mode:lr-tb;fill:#000000;fill-opacity:1;fill-rule:nonzero;stroke:none;font-family:Helvetica;-inkscape-font-specification:Helvetica"
     x="0 5.5599999 8.3400002"
     y="0"
     sodipodi:role="line"
     id="tspan54">0.1</tspan></text>

</g><path
         d="m 920,4672.68 -40,0"
         style="fill:none;stroke:#000000;stroke-width:5;stroke-linecap:butt;stroke-linejoin:miter;stroke-miterlimit:10;stroke-opacity:1;stroke-dasharray:none"
         id="path56"
         inkscape:connector-curvature="0" /><g
         id="g58"
         transform="scale(10,10)"><text
   transform="matrix(0,-1,-1,0,77,474.217)"
   id="text60"><tspan
     style="font-size:10px;font-variant:normal;font-weight:normal;writing-mode:lr-tb;fill:#000000;fill-opacity:1;fill-rule:nonzero;stroke:none;font-family:Helvetica;-inkscape-font-specification:Helvetica"
     x="0 5.5599999 8.3400002"
     y="0"
     sodipodi:role="line"
     id="tspan62">0.2</tspan></text>

</g><path
         d="m 920,3860.24 -40,0"
         style="fill:none;stroke:#000000;stroke-width:5;stroke-linecap:butt;stroke-linejoin:miter;stroke-miterlimit:10;stroke-opacity:1;stroke-dasharray:none"
         id="path64"
         inkscape:connector-curvature="0" /><g
         id="g66"
         transform="scale(10,10)"><text
   transform="matrix(0,-1,-1,0,77,392.973)"
   id="text68"><tspan
     style="font-size:10px;font-variant:normal;font-weight:normal;writing-mode:lr-tb;fill:#000000;fill-opacity:1;fill-rule:nonzero;stroke:none;font-family:Helvetica;-inkscape-font-specification:Helvetica"
     x="0 5.5599999 8.3400002"
     y="0"
     sodipodi:role="line"
     id="tspan70">0.2</tspan></text>

</g><path
         d="m 920,3047.8 -40,0"
         style="fill:none;stroke:#000000;stroke-width:5;stroke-linecap:butt;stroke-linejoin:miter;stroke-miterlimit:10;stroke-opacity:1;stroke-dasharray:none"
         id="path72"
         inkscape:connector-curvature="0" /><g
         id="g74"
         transform="scale(10,10)"><text
   transform="matrix(0,-1,-1,0,77,311.729)"
   id="text76"><tspan
     style="font-size:10px;font-variant:normal;font-weight:normal;writing-mode:lr-tb;fill:#000000;fill-opacity:1;fill-rule:nonzero;stroke:none;font-family:Helvetica;-inkscape-font-specification:Helvetica"
     x="0 5.5599999 8.3400002"
     y="0"
     sodipodi:role="line"
     id="tspan78">0.2</tspan></text>

</g><path
         d="m 920,7110 3820,0"
         style="fill:none;stroke:#000000;stroke-width:5;stroke-linecap:butt;stroke-linejoin:miter;stroke-miterlimit:10;stroke-opacity:1;stroke-dasharray:none"
         id="path80"
         inkscape:connector-curvature="0" /><g
         id="g82"
         transform="scale(10,10)"><text
   transform="matrix(1,0,0,-1,450.101,716)"
   id="text84"><tspan
     style="font-size:10px;font-variant:normal;font-weight:normal;writing-mode:lr-tb;fill:#000000;fill-opacity:1;fill-rule:nonzero;stroke:none;font-family:Helvetica;-inkscape-font-specification:Helvetica"
     x="0 5.5599999 10.56 13.34 18.9"
     y="0"
     sodipodi:role="line"
     id="tspan86">bytes</tspan></text>

</g><path
         d="m 920,7110 0,40"
         style="fill:none;stroke:#000000;stroke-width:5;stroke-linecap:butt;stroke-linejoin:miter;stroke-miterlimit:10;stroke-opacity:1;stroke-dasharray:none"
         id="path88"
         inkscape:connector-curvature="0" /><g
         id="g90"
         transform="scale(10,10)"><text
   transform="matrix(0,-1,-1,0,92,729.889)"
   id="text92"><tspan
     style="font-size:10px;font-variant:normal;font-weight:normal;writing-mode:lr-tb;fill:#000000;fill-opacity:1;fill-rule:nonzero;stroke:none;font-family:Helvetica;-inkscape-font-specification:Helvetica"
     x="0 5.5599999"
     y="0"
     sodipodi:role="line"
     id="tspan94">0M</tspan></text>

</g><path
         d="m 1902.72,7110 0,40"
         style="fill:none;stroke:#000000;stroke-width:5;stroke-linecap:butt;stroke-linejoin:miter;stroke-miterlimit:10;stroke-opacity:1;stroke-dasharray:none"
         id="path96"
         inkscape:connector-curvature="0" /><g
         id="g98"
         transform="scale(10,10)"><text
   transform="matrix(0,-1,-1,0,190.272,735.449)"
   id="text100"><tspan
     style="font-size:10px;font-variant:normal;font-weight:normal;writing-mode:lr-tb;fill:#000000;fill-opacity:1;fill-rule:nonzero;stroke:none;font-family:Helvetica;-inkscape-font-specification:Helvetica"
     x="0 5.5599999 11.12"
     y="0"
     sodipodi:role="line"
     id="tspan102">20M</tspan></text>

</g><path
         d="m 2885.44,7110 0,40"
         style="fill:none;stroke:#000000;stroke-width:5;stroke-linecap:butt;stroke-linejoin:miter;stroke-miterlimit:10;stroke-opacity:1;stroke-dasharray:none"
         id="path104"
         inkscape:connector-curvature="0" /><g
         id="g106"
         transform="scale(10,10)"><text
   transform="matrix(0,-1,-1,0,288.544,735.449)"
   id="text108"><tspan
     style="font-size:10px;font-variant:normal;font-weight:normal;writing-mode:lr-tb;fill:#000000;fill-opacity:1;fill-rule:nonzero;stroke:none;font-family:Helvetica;-inkscape-font-specification:Helvetica"
     x="0 5.5599999 11.12"
     y="0"
     sodipodi:role="line"
     id="tspan110">40M</tspan></text>

</g><path
         d="m 3868.16,7110 0,40"
         style="fill:none;stroke:#000000;stroke-width:5;stroke-linecap:butt;stroke-linejoin:miter;stroke-miterlimit:10;stroke-opacity:1;stroke-dasharray:none"
         id="path112"
         inkscape:connector-curvature="0" /><g
         id="g114"
         transform="scale(10,10)"><text
   transform="matrix(0,-1,-1,0,386.816,735.449)"
   id="text116"><tspan
     style="font-size:10px;font-variant:normal;font-weight:normal;writing-mode:lr-tb;fill:#000000;fill-opacity:1;fill-rule:nonzero;stroke:none;font-family:Helvetica;-inkscape-font-specification:Helvetica"
     x="0 5.5599999 11.12"
     y="0"
     sodipodi:role="line"
     id="tspan118">60M</tspan></text>

</g><path
         d="m 1614,2045.36 140,0 0,140 -140,0 0,-140 z"
         style="fill:#000000;fill-opacity:1;fill-rule:nonzero;stroke:none"
         id="path120"
         inkscape:connector-curvature="0" /><path
         d="m 1614,2045.36 140,0 0,140 -140,0 0,-140 z"
         style="fill:none;stroke:#000000;stroke-width:5;stroke-linecap:butt;stroke-linejoin:miter;stroke-miterlimit:10;stroke-opacity:1;stroke-dasharray:none"
         id="path122"
         inkscape:connector-curvature="0" /><g
         id="g124"
         transform="scale(10,10)"><text
   transform="matrix(0,-1,-1,0,163.4,199.536)"
   id="text126"><tspan
     style="font-size:10px;font-variant:normal;font-weight:normal;writing-mode:lr-tb;fill:#000000;fill-opacity:1;fill-rule:nonzero;stroke:none;font-family:Helvetica;-inkscape-font-specification:Helvetica"
     x="0 6.6700001 12.23 18.9 26.120001 32.790001 40.009998 47.790001 53.349998"
     y="0"
     sodipodi:role="line"
     id="tspan128">BLACKHOLE</tspan></text>

</g><path
         d="m 2378,2045.36 140,0 0,140 -140,0 0,-140 z"
         style="fill:#0000ff;fill-opacity:1;fill-rule:nonzero;stroke:none"
         id="path130"
         inkscape:connector-curvature="0" /><path
         d="m 2378,2045.36 140,0 0,140 -140,0 0,-140 z"
         style="fill:none;stroke:#000000;stroke-width:5;stroke-linecap:butt;stroke-linejoin:miter;stroke-miterlimit:10;stroke-opacity:1;stroke-dasharray:none"
         id="path132"
         inkscape:connector-curvature="0" /><g
         id="g134"
         transform="scale(10,10)"><text
   transform="matrix(0,-1,-1,0,239.8,199.536)"
   id="text136"><tspan
     style="font-size:10px;font-variant:normal;font-weight:normal;writing-mode:lr-tb;fill:#000000;fill-opacity:1;fill-rule:nonzero;stroke:none;font-family:Helvetica;-inkscape-font-specification:Helvetica"
     x="0 7.2199998 12.78 18.34 23.9 26.120001"
     y="0"
     sodipodi:role="line"
     id="tspan138">Double</tspan></text>

</g><path
         d="m 3142,2045.36 140,0 0,140 -140,0 0,-140 z"
         style="fill:#00ff00;fill-opacity:1;fill-rule:nonzero;stroke:none"
         id="path140"
         inkscape:connector-curvature="0" /><path
         d="m 3142,2045.36 140,0 0,140 -140,0 0,-140 z"
         style="fill:none;stroke:#000000;stroke-width:5;stroke-linecap:butt;stroke-linejoin:miter;stroke-miterlimit:10;stroke-opacity:1;stroke-dasharray:none"
         id="path142"
         inkscape:connector-curvature="0" /><g
         id="g144"
         transform="scale(10,10)"><text
   transform="matrix(0,-1,-1,0,316.2,199.536)"
   id="text146"><tspan
     style="font-size:10px;font-variant:normal;font-weight:normal;writing-mode:lr-tb;fill:#000000;fill-opacity:1;fill-rule:nonzero;stroke:none;font-family:Helvetica;-inkscape-font-specification:Helvetica"
     x="0"
     y="0"
     id="tspan148">*</tspan></text>

</g><path
         d="m 3906,2045.36 140,0 0,140 -140,0 0,-140 z"
         style="fill:#00ffff;fill-opacity:1;fill-rule:nonzero;stroke:none"
         id="path150"
         inkscape:connector-curvature="0" /><path
         d="m 3906,2045.36 140,0 0,140 -140,0 0,-140 z"
         style="fill:none;stroke:#000000;stroke-width:5;stroke-linecap:butt;stroke-linejoin:miter;stroke-miterlimit:10;stroke-opacity:1;stroke-dasharray:none"
         id="path152"
         inkscape:connector-curvature="0" /><g
         id="g154"
         transform="scale(10,10)"><text
   transform="matrix(0,-1,-1,0,392.6,199.536)"
   id="text156"><tspan
     style="font-size:10px;font-variant:normal;font-weight:normal;writing-mode:lr-tb;fill:#000000;fill-opacity:1;fill-rule:nonzero;stroke:none;font-family:Helvetica;-inkscape-font-specification:Helvetica"
     x="0 2.78"
     y="0"
     sodipodi:role="line"
     id="tspan158">[]</tspan></text>

</g><path
         d="m 920,7110 0,-4874.64 0.004,0 24.98,162.48 141.686,162.49 117.7,162.49 141.69,162.49 141.69,162.49 141.68,162.49 22.25,162.48 -130.34,162.49 -105.15,162.49 -125.92,162.49 -121.95,162.49 -132.55,162.48 -115.766,324.98 0,2437.32 L 920,7110"
         style="fill:#000000;fill-opacity:1;fill-rule:nonzero;stroke:none"
         id="path160"
         inkscape:connector-curvature="0" /><path
         d="m 920,7110 0,-4874.64 0.004,0 24.98,162.48 141.686,162.49 117.7,162.49 141.69,162.49 141.69,162.49 141.68,162.49 22.25,162.48 -130.34,162.49 -105.15,162.49 -125.92,162.49 -121.95,162.49 -132.55,162.48 -115.766,324.98 0,2437.32 L 920,7110 z"
         style="fill:none;stroke:#000000;stroke-width:5;stroke-linecap:butt;stroke-linejoin:miter;stroke-miterlimit:10;stroke-opacity:1;stroke-dasharray:none"
         id="path162"
         inkscape:connector-curvature="0" /><path
         d="m 920,7110 0,0 0.004,-162.49 0,-2437.32 115.766,-324.98 132.55,-162.48 121.95,-162.49 125.92,-162.49 105.15,-162.49 130.34,-162.49 -22.25,-162.48 -141.68,-162.49 -141.69,-162.49 -141.69,-162.49 -117.7,-162.49 -141.686,-162.49 -24.98,-162.48 -0.004,0 0.004,0 811.156,162.48 141.69,162.49 117.7,162.49 141.68,162.49 141.69,162.49 141.69,162.49 22.25,162.48 -130.34,162.49 -105.16,162.49 -125.92,162.49 -121.94,162.49 -132.55,162.48 -137.95,324.98 -51.62,162.49 -50.72,162.48 -30.19,162.49 -48.3,162.49 -38.64,0 -41.06,162.49 -45.89,162.49 -41.05,162.49 -39.85,162.48 -42.27,162.49 -53.13,162.49 -35.02,162.49 -27.78,0 -53.13,162.49 -49.51,162.49 -43.469,162.48 L 952.52,6947.51 920,7110"
         style="fill:#0000ff;fill-opacity:1;fill-rule:nonzero;stroke:none"
         id="path164"
         inkscape:connector-curvature="0" /><path
         d="m 920,7110 0,0 0.004,-162.49 0,-2437.32 115.766,-324.98 132.55,-162.48 121.95,-162.49 125.92,-162.49 105.15,-162.49 130.34,-162.49 -22.25,-162.48 -141.68,-162.49 -141.69,-162.49 -141.69,-162.49 -117.7,-162.49 -141.686,-162.49 -24.98,-162.48 -0.004,0 0.004,0 811.156,162.48 141.69,162.49 117.7,162.49 141.68,162.49 141.69,162.49 141.69,162.49 22.25,162.48 -130.34,162.49 -105.16,162.49 -125.92,162.49 -121.94,162.49 -132.55,162.48 -137.95,324.98 -51.62,162.49 -50.72,162.48 -30.19,162.49 -48.3,162.49 -38.64,0 -41.06,162.49 -45.89,162.49 -41.05,162.49 -39.85,162.48 -42.27,162.49 -53.13,162.49 -35.02,162.49 -27.78,0 -53.13,162.49 -49.51,162.49 -43.469,162.48 L 952.52,6947.51 920,7110 z"
         style="fill:none;stroke:#000000;stroke-width:5;stroke-linecap:butt;stroke-linejoin:miter;stroke-miterlimit:10;stroke-opacity:1;stroke-dasharray:none"
         id="path166"
         inkscape:connector-curvature="0" /><path
         d="m 920,7110 0,0 32.52,-162.49 39.851,-162.49 43.469,-162.48 49.51,-162.49 53.13,-162.49 27.78,0 35.02,-162.49 53.13,-162.49 42.27,-162.49 39.85,-162.48 41.05,-162.49 45.89,-162.49 41.06,-162.49 38.64,0 48.3,-162.49 30.19,-162.49 50.72,-162.48 51.62,-162.49 137.95,-324.98 132.55,-162.48 121.94,-162.49 125.92,-162.49 105.16,-162.49 130.34,-162.49 -22.25,-162.48 -141.69,-162.49 -141.69,-162.49 -141.68,-162.49 -117.7,-162.49 -141.69,-162.49 -811.156,-162.48 -0.004,0 0.004,0 811.156,162.48 141.69,162.49 117.7,162.49 141.68,162.49 141.69,162.49 141.69,162.49 158.49,162.48 195.51,162.49 157.73,162.49 188.88,162.49 182.92,162.49 198.82,162.48 96,324.98 -180.65,162.49 -177.51,162.48 -105.66,162.49 -169.06,162.49 -135.25,0 -143.7,162.49 -160.61,162.49 -143.7,162.49 -139.47,162.48 -147.93,162.49 -185.96,162.49 -122.57,162.49 -97.21,0 -185.97,162.49 -173.28,162.49 -152.15,162.48 L 1033.8,6947.51 920,7110"
         style="fill:#00ff00;fill-opacity:1;fill-rule:nonzero;stroke:none"
         id="path168"
         inkscape:connector-curvature="0" /><path
         d="m 920,7110 0,0 32.52,-162.49 39.851,-162.49 43.469,-162.48 49.51,-162.49 53.13,-162.49 27.78,0 35.02,-162.49 53.13,-162.49 42.27,-162.49 39.85,-162.48 41.05,-162.49 45.89,-162.49 41.06,-162.49 38.64,0 48.3,-162.49 30.19,-162.49 50.72,-162.48 51.62,-162.49 137.95,-324.98 132.55,-162.48 121.94,-162.49 125.92,-162.49 105.16,-162.49 130.34,-162.49 -22.25,-162.48 -141.69,-162.49 -141.69,-162.49 -141.68,-162.49 -117.7,-162.49 -141.69,-162.49 -811.156,-162.48 -0.004,0 0.004,0 811.156,162.48 141.69,162.49 117.7,162.49 141.68,162.49 141.69,162.49 141.69,162.49 158.49,162.48 195.51,162.49 157.73,162.49 188.88,162.49 182.92,162.49 198.82,162.48 96,324.98 -180.65,162.49 -177.51,162.48 -105.66,162.49 -169.06,162.49 -135.25,0 -143.7,162.49 -160.61,162.49 -143.7,162.49 -139.47,162.48 -147.93,162.49 -185.96,162.49 -122.57,162.49 -97.21,0 -185.97,162.49 -173.28,162.49 -152.15,162.48 L 1033.8,6947.51 920,7110 z"
         style="fill:none;stroke:#000000;stroke-width:5;stroke-linecap:butt;stroke-linejoin:miter;stroke-miterlimit:10;stroke-opacity:1;stroke-dasharray:none"
         id="path170"
         inkscape:connector-curvature="0" /><path
         d="m 920,7110 0,0 113.8,-162.49 139.48,-162.49 152.15,-162.48 173.28,-162.49 185.97,-162.49 97.21,0 122.57,-162.49 185.96,-162.49 147.93,-162.49 139.47,-162.48 143.7,-162.49 160.61,-162.49 143.7,-162.49 135.25,0 169.06,-162.49 105.66,-162.49 177.51,-162.48 180.65,-162.49 -96,-324.98 -198.82,-162.48 -182.92,-162.49 -188.88,-162.49 -157.73,-162.49 -195.51,-162.49 -158.49,-162.48 -141.69,-162.49 -141.69,-162.49 -141.68,-162.49 -117.7,-162.49 -141.69,-162.49 -811.156,-162.48 -0.004,0 0.059,0 1990.421,162.48 141.68,162.49 117.7,162.49 141.69,162.49 141.69,162.49 141.69,162.49 158.48,162.48 195.51,162.49 157.74,162.49 188.88,162.49 182.92,162.49 198.82,162.48 62.72,324.98 -258.08,162.49 -253.59,162.48 -150.94,162.49 -241.51,162.49 -193.22,0 -205.28,162.49 -229.44,162.49 -205.28,162.49 -199.25,162.48 -211.33,162.49 -265.66,162.49 -175.1,162.49 -138.87,0 -265.66,162.49 -247.56,162.49 -217.35,162.48 -199.26,162.49 L 920,7110"
         style="fill:#00ffff;fill-opacity:1;fill-rule:nonzero;stroke:none"
         id="path172"
         inkscape:connector-curvature="0" /><path
         d="m 920,7110 0,0 113.8,-162.49 139.48,-162.49 152.15,-162.48 173.28,-162.49 185.97,-162.49 97.21,0 122.57,-162.49 185.96,-162.49 147.93,-162.49 139.47,-162.48 143.7,-162.49 160.61,-162.49 143.7,-162.49 135.25,0 169.06,-162.49 105.66,-162.49 177.51,-162.48 180.65,-162.49 -96,-324.98 -198.82,-162.48 -182.92,-162.49 -188.88,-162.49 -157.73,-162.49 -195.51,-162.49 -158.49,-162.48 -141.69,-162.49 -141.69,-162.49 -141.68,-162.49 -117.7,-162.49 -141.69,-162.49 -811.156,-162.48 -0.004,0 0.059,0 1990.421,162.48 141.68,162.49 117.7,162.49 141.69,162.49 141.69,162.49 141.69,162.49 158.48,162.48 195.51,162.49 157.74,162.49 188.88,162.49 182.92,162.49 198.82,162.48 62.72,324.98 -258.08,162.49 -253.59,162.48 -150.94,162.49 -241.51,162.49 -193.22,0 -205.28,162.49 -229.44,162.49 -205.28,162.49 -199.25,162.48 -211.33,162.49 -265.66,162.49 -175.1,162.49 -138.87,0 -265.66,162.49 -247.56,162.49 -217.35,162.48 -199.26,162.49 L 920,7110 z"
         style="fill:none;stroke:#000000;stroke-width:5;stroke-linecap:butt;stroke-linejoin:miter;stroke-miterlimit:10;stroke-opacity:1;stroke-dasharray:none"
         id="path174"
         inkscape:connector-curvature="0" /></g></g></svg>